HIERARCHY
ROOT hip
{
	OFFSET 0.000000 0.000000 0.000000 
	CHANNELS 6 Xposition Yposition Zposition Xrotation Zrotation Yrotation
	JOINT abdomen
	{
		OFFSET 0.000000 3.402643 0.000000 
		CHANNELS 3 Xrotation Zrotation Yrotation
		JOINT chest
		{
			OFFSET 0.000000 8.438565 -0.680529 
			CHANNELS 3 Xrotation Zrotation Yrotation
			JOINT neck
			{
				OFFSET 0.000000 10.207942 -0.272212 
				CHANNELS 3 Xrotation Zrotation Yrotation
				JOINT head
				{
					OFFSET 0.000000 3.130431 0.000000 
					CHANNELS 3 Xrotation Zrotation Yrotation
					End Site
					{
						OFFSET 0.000000 3.130435 0.000000 
					}
				}
			}
			JOINT lCollar
			{
				OFFSET 3.470700 6.669187 -0.816635 
				CHANNELS 3 Yrotation Zrotation Xrotation
				JOINT lShldr
				{
					OFFSET 3.198488 0.000000 0.000000 
					CHANNELS 3 Zrotation Yrotation Xrotation
					JOINT lForeArm
					{
						OFFSET 10.139888 0.000000 0.000000 
						CHANNELS 3 Yrotation Zrotation Xrotation
						JOINT lHand
						{
							OFFSET 8.370511 0.000000 0.000000 
							CHANNELS 3 Zrotation Yrotation Xrotation
							End Site
							{
								OFFSET 4.083176 0.000000 0.000000 
							}
						}
					}
				}
			}
			JOINT rCollar
			{
				OFFSET -3.470700 6.669187 -0.816635 
				CHANNELS 3 Yrotation Zrotation Xrotation
				JOINT rShldr
				{
					OFFSET -3.198488 0.000000 0.000000 
					CHANNELS 3 Zrotation Yrotation Xrotation
					JOINT rForeArm
					{
						OFFSET -10.139888 0.000000 0.000000 
						CHANNELS 3 Yrotation Zrotation Xrotation
						JOINT rHand
						{
							OFFSET -8.370511 0.000000 0.000000 
							CHANNELS 3 Zrotation Yrotation Xrotation
							End Site
							{
								OFFSET -4.083176 0.000000 0.000000 
							}
						}
					}
				}
			}
		}
	}
	JOINT lThigh
	{
		OFFSET 5.308129 -1.633274 1.361059 
		CHANNELS 3 Xrotation Zrotation Yrotation
		JOINT lShin
		{
			OFFSET -2.041588 -20.007561 0.000000 
			CHANNELS 3 Xrotation Zrotation Yrotation
			JOINT lFoot
			{
				OFFSET 0.000000 -19.190928 -1.224953 
				CHANNELS 3 Xrotation Yrotation Zrotation
				End Site
				{
					OFFSET 0.000000 -2.449906 4.627600 
				}
			}
		}
	}
	JOINT rThigh
	{
		OFFSET -5.308129 -1.633274 1.361059 
		CHANNELS 3 Xrotation Zrotation Yrotation
		JOINT rShin
		{
			OFFSET 2.041588 -20.007561 0.000000 
			CHANNELS 3 Xrotation Zrotation Yrotation
			JOINT rFoot
			{
				OFFSET 0.000000 -19.190928 -1.224953 
				CHANNELS 3 Xrotation Yrotation Zrotation
				End Site
				{
					OFFSET 0.000000 -2.449906 4.627600 
				}
			}
		}
	}
}
MOTION
Frames: 19
Frame Time: 0.016667
-0.601852 48.861225 12.033027 -6.712871 7.969171 18.920559 34.742455 6.870472 14.347371 -3.170041 2.648217 16.066563 -15.339818 -3.467499 0.712819 13.733936 -3.662265 -44.931461 4.526046 -8.692797 -0.459290 -48.312115 32.329628 -18.888582 -90.531570 -5.000000 -0.159995 -30.913982 -7.499595 -6.289817 2.022822 -12.431787 0.656734 7.729758 58.113853 -15.470798 69.090485 -5.000000 -16.495369 35.906811 21.317116 -45.000000 -24.012747 -9.560799 -17.638819 37.255104 -9.992177 -8.683848 -9.408272 -27.079298 -16.682949 36.095058 -5.139412 -28.220758 30.569834 -0.719595 -0.639960 5.060605 -16.267338 3.289662 
-0.676267 48.922707 12.042140 -6.758264 7.409441 18.154917 34.969631 6.566769 14.377835 -2.896852 2.464955 16.270193 -14.987436 -3.499396 0.697923 13.362999 -3.546677 -45.228073 4.994156 -8.770893 -0.463307 -49.725254 33.863918 -20.999182 -90.934410 -5.000000 -0.359726 -30.886539 -7.319798 -5.932446 2.660593 -11.836915 0.623875 11.292177 55.620152 -11.828677 69.568909 -5.000000 -16.378490 36.969902 20.922680 -45.000000 -24.079905 -9.159214 -18.098175 37.250721 -9.999190 -8.444373 -9.292842 -26.889343 -15.981019 35.609684 -5.187174 -27.274611 30.665018 -0.299499 -0.305821 5.468884 -17.284111 3.252879 
-0.750687 48.984177 12.051221 -6.786966 6.843028 17.404425 35.197384 6.267171 14.398974 -2.631918 2.291337 16.483690 -14.635750 -3.539481 0.694125 12.980618 -3.432601 -45.515179 5.462343 -8.839241 -0.466820 -51.245274 35.354645 -23.210709 -91.356339 -5.000000 -0.598443 -30.865908 -7.151609 -5.590205 3.298617 -11.232285 0.590642 14.364072 53.014599 -8.685328 70.053246 -5.000000 -16.231508 38.037880 20.527456 -45.000000 -24.156481 -8.747475 -18.558353 37.244484 -9.824013 -8.223388 -9.161377 -26.706158 -15.301904 35.094662 -5.225614 -26.325338 30.755779 0.139971 0.014383 5.977689 -18.330959 3.268159 
-0.840740 49.025990 12.012109 -6.715868 6.255500 16.252516 35.429146 5.973410 14.380203 -2.295122 2.051186 16.579437 -14.568705 -3.595946 0.712520 12.431684 -3.370666 -45.286137 5.636073 -9.083076 -0.479382 -52.747974 36.203815 -25.359764 -91.896225 -5.000000 -0.917332 -31.089840 -6.995303 -5.442342 3.982708 -10.305833 0.540917 17.038015 50.602203 -5.992831 71.120071 -5.000000 -15.109340 39.365421 19.016336 -44.678352 -24.431364 -8.123712 -18.540377 37.365681 -9.608351 -8.085360 -9.261227 -26.290129 -14.774694 34.709244 -5.304473 -26.350201 30.427958 0.369371 0.165504 5.765052 -18.974644 3.012441 
-0.934701 49.062881 11.960923 -6.610303 5.660869 15.007394 35.668884 5.669891 14.358295 -1.953801 1.792156 16.636368 -14.570916 -3.670253 0.744091 11.827139 -3.315394 -44.930077 5.731103 -9.385412 -0.496543 -54.273186 36.860031 -27.520035 -92.496712 -5.000000 -1.301487 -31.378906 -6.844951 -5.344415 4.696263 -9.301353 0.487331 19.424250 48.175705 -3.610100 72.232178 -5.000000 -13.847716 40.670036 17.197746 -43.046860 -24.782150 -7.410388 -18.422083 37.506939 -9.432991 -7.970440 -9.422771 -25.866026 -14.332788 34.350685 -5.411592 -26.628126 29.984612 0.540209 0.237093 5.366554 -19.512665 2.717606 
-1.035047 49.097321 11.900686 -6.400600 5.086719 13.678321 35.832096 5.392350 14.213410 -1.727951 1.600537 16.615959 -14.554585 -3.812145 0.785268 11.220777 -3.353418 -44.510998 5.572920 -9.784280 -0.507605 -55.696342 37.207745 -29.503651 -93.123383 -5.000000 -1.739158 -31.603958 -6.803743 -5.494626 5.587158 -8.188640 0.439402 21.911804 45.810719 -1.202240 73.368706 -5.000000 -12.413588 41.901443 14.589566 -40.685741 -25.181396 -6.648251 -18.028681 37.638687 -9.247042 -7.871162 -9.943112 -25.354250 -14.025788 34.031498 -5.518566 -27.581127 29.366310 0.628143 0.278918 4.755552 -19.795462 2.252086 
-1.144943 49.128094 11.826900 -6.071778 4.534406 12.197540 35.909084 5.144941 13.912471 -1.679053 1.514784 16.459202 -14.500352 -4.071356 0.834317 10.609217 -3.531682 -43.982246 5.010917 -10.359659 -0.537275 -56.907635 37.132118 -31.153534 -93.781502 -5.000000 -2.220032 -31.751667 -6.943126 -6.021615 6.769704 -6.940134 0.373421 24.690853 43.526188 1.377303 74.453293 -5.000000 -10.763191 42.907375 10.835978 -37.250366 -25.656322 -5.757659 -17.284092 37.786713 -9.026280 -7.751745 -10.977679 -24.772409 -13.912125 33.726994 -5.645586 -29.559904 28.468351 0.569267 0.252808 3.932717 -19.679525 1.535470 
-1.254849 49.158867 11.753100 -5.728663 3.991708 10.729878 35.982178 4.906682 13.637206 -1.631704 1.419379 16.311991 -14.436625 -4.330564 0.884080 9.990944 -3.698107 -43.453354 4.448589 -10.935037 -0.568743 -58.099789 37.020626 -32.784515 -94.456993 -5.000000 -2.733617 -31.897577 -7.096153 -6.564368 7.942980 -5.692970 0.298058 27.233938 41.154751 3.713140 75.314873 -5.000000 -9.315945 43.628525 7.010724 -33.921139 -26.124247 -4.888330 -16.543976 37.937634 -8.837553 -7.622705 -11.996700 -24.171267 -13.760675 33.419270 -5.784104 -31.501163 27.581430 0.539679 0.186290 3.143643 -19.597460 0.830118 
-1.329695 49.255772 11.720899 -5.639330 2.973318 8.693671 36.192245 5.452502 13.447638 -1.536071 1.565145 15.785293 -14.768211 -4.661126 0.984086 9.318966 -4.482180 -41.728916 3.795611 -11.734710 -0.611928 -59.179916 35.246189 -33.237965 -93.468758 -5.000000 -2.078074 -31.411877 -8.375148 -8.800957 8.619569 -3.936052 0.216008 30.897358 40.776894 7.316829 74.139984 -5.000000 -8.884260 43.463715 3.280533 -29.762007 -26.212873 -3.434080 -15.873157 37.978951 -8.543732 -7.379477 -13.567283 -23.194675 -13.772174 33.210369 -5.840947 -33.248821 26.450239 0.460853 0.128075 2.902980 -18.861811 0.433859 
-1.404514 49.352730 11.688726 -5.504678 1.949639 6.664258 36.409054 5.998371 13.259370 -1.440302 1.720753 15.258668 -15.110441 -4.991670 1.084123 8.615190 -5.247952 -39.987015 3.132341 -12.524621 -0.654757 -60.213322 33.472672 -33.625320 -92.490868 -5.000000 -1.450738 -30.863016 -9.643591 -11.073472 9.297661 -2.191804 0.115975 34.501835 40.221020 10.859193 72.951317 -5.000000 -8.191539 43.047375 -0.397001 -25.559940 -26.305330 -1.991158 -15.210871 38.066288 -8.261564 -7.143158 -15.069447 -22.244596 -13.689404 32.966698 -5.889317 -34.971756 25.358032 0.378350 0.072596 2.636639 -18.178537 0.022852 
-1.415883 49.529907 11.722593 -5.610847 0.769647 3.955508 36.785233 6.926735 13.234382 -1.353452 1.973566 14.537236 -15.362193 -5.198168 1.155587 7.941277 -6.108686 -37.042862 2.557792 -13.197507 -0.691680 -60.801525 30.601156 -32.413609 -90.390015 -5.000000 -0.169280 -29.975019 -11.342858 -13.923524 9.510323 -0.203885 0.003158 39.583561 39.525841 15.802664 71.379974 -5.000000 -7.631633 42.152245 -4.608702 -20.127342 -25.755880 -0.340385 -14.465752 37.798405 -7.899789 -6.753498 -16.103449 -21.136765 -13.328770 32.782341 -6.348164 -35.065807 24.367270 0.538821 0.119838 3.361523 -17.445749 -0.055984 
-1.384911 49.760624 11.800529 -5.818145 -0.537056 0.810511 37.295166 8.089645 13.310314 -1.264164 2.285235 13.698895 -15.562970 -5.328900 1.204871 7.244620 -6.996111 -33.267899 2.042394 -13.792371 -0.722371 -61.234444 27.011883 -30.209593 -87.756470 -5.000000 1.150153 -28.768208 -13.276444 -17.228302 9.404909 1.922202 -0.107044 45.553806 38.426327 21.581308 69.574348 -5.000000 -7.063558 40.742733 -9.039351 -13.726391 -24.785618 1.437223 -13.635613 37.355461 -7.508860 -6.297701 -16.780321 -19.966829 -12.733542 32.599838 -7.072862 -34.068867 23.416029 0.870883 0.266574 4.820476 -16.760349 0.025320 
-1.327752 50.023930 11.895178 -5.910728 -1.902384 -2.569861 37.824100 9.378224 13.463224 -1.217827 2.617087 12.821804 -15.672948 -5.404655 1.226160 6.576090 -7.880079 -29.021242 1.547488 -14.289712 -0.750380 -61.432655 23.321451 -27.427883 -85.431816 -5.000000 1.922734 -27.435564 -15.069281 -20.606268 9.137129 3.931279 -0.211083 51.259373 36.221031 26.597273 68.187462 -5.000000 -6.118310 39.121555 -12.890126 -7.699182 -23.668583 3.271651 -12.758884 36.691578 -7.118288 -5.830419 -17.240185 -18.668905 -12.042163 32.305630 -7.941808 -32.839771 22.448149 1.222509 0.420229 6.605085 -16.024181 0.284858 
-1.165936 50.417526 12.056596 -5.720609 -3.470567 -6.937078 38.390072 11.127855 13.862490 -1.316061 2.969565 11.866548 -15.373730 -5.285051 1.168733 6.174634 -8.909771 -22.900227 1.106572 -14.396982 -0.755912 -60.436790 19.101196 -22.412415 -83.564903 -5.000000 1.804539 -26.053144 -16.586100 -24.013952 8.158461 5.451453 -0.300272 56.594715 31.049257 29.209246 68.492432 -5.000000 -4.627764 37.994438 -15.243426 -4.090968 -22.003616 5.321645 -11.627482 35.247025 -6.811532 -5.301310 -16.802755 -16.942194 -11.011305 31.490871 -9.366286 -30.677355 21.287830 1.682126 0.614767 10.042212 -15.097623 1.221717 
-1.004059 50.811184 12.218048 -5.415349 -5.008690 -11.313751 38.982414 12.878249 14.291300 -1.410599 3.332370 10.911064 -15.074533 -5.155787 1.108945 5.665235 -9.893124 -16.751873 0.675275 -14.514002 -0.761944 -59.840668 14.820106 -17.574257 -81.735481 -5.000000 1.155335 -24.568527 -18.003052 -27.494707 7.180019 6.964635 -0.370017 61.390705 25.700485 31.130400 68.696678 -5.000000 -3.174165 36.721149 -17.506575 -0.371022 -20.304733 7.332409 -10.464782 33.803810 -6.499440 -4.799386 -16.402626 -15.163662 -10.023109 30.607147 -10.733418 -28.501467 20.117996 2.102463 0.783773 13.396191 -14.112431 2.059546 
-0.736896 51.256382 12.366123 -4.224015 -6.397845 -17.053366 39.514751 14.688573 14.754072 -1.453813 3.609472 9.759592 -13.967001 -4.980351 0.963479 5.082541 -11.027682 -8.339658 0.271123 -13.889935 -0.739219 -57.863689 11.498288 -13.342084 -81.622032 -0.934947 -0.075153 -22.659073 -19.370708 -31.967314 6.046459 7.034124 -0.363936 63.244053 19.451736 25.800770 69.282951 0.718764 -0.315292 36.323792 -16.489515 -1.164654 -18.661367 9.530922 -8.110221 31.716963 -6.065592 -4.162918 -15.407769 -13.427521 -9.322987 28.139837 -12.558783 -26.440922 19.189987 2.141935 0.765309 17.492258 -12.157426 3.270645 
-0.443363 51.714458 12.510831 -2.700360 -7.611647 -23.185467 40.070496 16.523590 15.253038 -1.487860 3.877234 8.558263 -12.654160 -4.787039 0.804639 4.349597 -12.118315 0.677966 -0.138462 -13.090213 -0.695650 -55.699528 8.271511 -9.377831 -81.772346 5.000000 -1.310297 -20.578773 -20.561686 -36.750305 4.872745 6.741549 -0.347627 65.115601 13.154875 18.826290 69.588089 5.000000 2.765941 36.109535 -14.685291 -3.115624 -16.938780 11.696684 -5.403839 29.481497 -5.587048 -3.491431 -14.295045 -11.694754 -8.747136 25.203691 -14.385182 -24.338604 18.296511 2.054067 0.681336 21.721516 -9.871697 4.354642 
-0.119460 52.124565 12.617836 -0.876088 -8.182978 -30.064642 40.567364 17.646311 15.489924 -1.512734 4.086412 7.376486 -11.010149 -4.722135 0.646362 3.502783 -12.851480 10.098608 -0.306059 -11.744462 -0.612432 -52.521065 5.448400 -6.251832 -82.274948 5.000000 -2.289637 -19.262835 -21.325045 -40.144234 4.283804 6.048396 -0.321508 66.329544 7.956748 11.668955 69.633026 5.000000 5.262702 36.049545 -13.794815 -4.035617 -15.321062 13.602545 -1.564548 27.294102 -4.951980 -2.820243 -13.053257 -10.425679 -8.689496 21.072020 -16.522800 -21.130682 18.082298 2.036681 0.666631 25.440067 -7.867896 5.349808 
0.249978 52.462658 12.668262 1.236032 -7.791630 -38.020409 40.972610 17.707073 15.288011 -1.515989 4.236728 6.212817 -8.836138 -4.878388 0.461652 2.672749 -13.092196 20.063829 -0.128200 -9.559978 -0.496024 -47.608322 3.251980 -4.330538 -83.519463 5.000000 -2.678360 -19.213793 -21.697779 -41.313145 4.550830 4.790279 -0.256359 66.038002 4.091097 4.377692 69.758896 5.000000 6.902321 36.299686 -14.253001 -3.372280 -13.871627 15.091197 3.914141 25.200531 -4.096328 -2.157708 -11.666745 -9.828218 -9.307764 15.112312 -18.873522 -16.197985 18.860659 2.105443 0.721247 28.201756 -6.307143 6.345653 
